<svg xmlns="http://www.w3.org/2000/svg" viewBox="0 0 866.455 654.917" height="560" width="424"><defs><clipPath id="a"><path d="M5.75 473.486c-3.175 0-5.75-2.618-5.75-5.846V13.47c0-3.227 2.575-5.846 5.75-5.846h638.339c3.182 0 5.752 2.619 5.752 5.846v454.17c0 3.228-2.57 5.846-5.752 5.846z"/></clipPath><linearGradient id="b" gradientTransform="rotate(-90 399.365 74.705) scale(469.84116)" gradientUnits="userSpaceOnUse" x2="1"><stop offset="0" stop-color="#ccc"/><stop offset="1" stop-color="#a5a3a3"/></linearGradient><clipPath id="c"><path d="M0 491.187h649.841V0H0z"/></clipPath><clipPath id="d"><path d="M320.777 473.486V11.802s18.189-5.901 92.679-5.901c74.489 0 221.993 5.799 221.993 5.799v462.937s-150.453 4.751-221.257 4.751c-70.801 0-93.415-5.902-93.415-5.902"/></clipPath><linearGradient id="e" gradientTransform="matrix(314.67279 0 0 -314.67279 320.777 242.645)" gradientUnits="userSpaceOnUse" x2="1"><stop offset="0" stop-color="#303030"/><stop offset=".063" stop-color="#dbdbdb"/><stop offset=".135" stop-color="#dbdbdb"/><stop offset=".269" stop-color="#f4f4f4"/><stop offset=".409" stop-color="#f4f4f4"/><stop offset=".516" stop-color="#f4f4f4"/><stop offset="1" stop-color="#f0f0f0"/></linearGradient><clipPath id="f"><path d="M227.358 491.188c-70.801 0-221.255-16.551-221.255-16.551V7.7S153.607 0 228.095 0c74.49 0 92.682 11.802 92.682 11.802v461.684s-22.617 17.702-93.419 17.702z"/></clipPath><linearGradient id="g" gradientTransform="rotate(180 160.388 122.797) scale(314.67389)" gradientUnits="userSpaceOnUse" x2="1"><stop offset="0" stop-color="#918f8e"/><stop offset=".204" stop-color="#d9d9d9"/><stop offset=".365" stop-color="#f4f4f4"/><stop offset=".532" stop-color="#f4f4f4"/><stop offset=".617" stop-color="#f4f4f4"/><stop offset="1" stop-color="#f0f0f0"/></linearGradient><clipPath id="h"><path d="M0 491.187h649.841V0H0z"/></clipPath></defs><g clip-path="url(#a)" transform="matrix(1.33333 0 0 -1.33333 0 654.917)"><path d="M5.75 473.486c-3.175 0-5.75-2.618-5.75-5.846V13.47c0-3.227 2.575-5.846 5.75-5.846h638.339c3.182 0 5.752 2.619 5.752 5.846v454.17c0 3.228-2.57 5.846-5.752 5.846z" fill="url(#b)"/></g><g clip-path="url(#c)" transform="matrix(1.33333 0 0 -1.33333 0 654.917)"><path d="M3.38 18.459s1.63-4.077 3.282-4.077h627.651l11.494 4.077z" fill="#8a8a8a"/><path d="M645.807 11.7l-32.358 6v446.937l32.358 10z" fill="#c9c9c9"/></g><g clip-path="url(#d)" transform="matrix(1.33333 0 0 -1.33333 0 654.917)"><path d="M320.777 473.486V11.802s18.189-5.901 92.679-5.901c74.489 0 221.993 5.799 221.993 5.799v462.937s-150.453 4.751-221.257 4.751c-70.801 0-93.415-5.902-93.415-5.902" fill="url(#e)"/></g><g clip-path="url(#f)" transform="matrix(1.33333 0 0 -1.33333 0 654.917)"><path d="M227.358 491.188c-70.801 0-221.255-16.551-221.255-16.551V7.7S153.607 0 228.095 0c74.49 0 92.682 11.802 92.682 11.802v461.684s-22.617 17.702-93.419 17.702z" fill="url(#g)"/></g><g clip-path="url(#h)" transform="matrix(1.33333 0 0 -1.33333 0 654.917)"><path d="M6.472 7.7h-.739v466.937h.739z" fill="#dbdbdb"/><path d="M5.565 7.7h-.737v466.937h.737z" fill="#e0e1e2"/><path d="M4.657 7.7H3.92v466.937h.737z" fill="#e0e2e3"/><path d="M3.749 7.7h-.737v466.937h.737z" fill="#e1e3e4"/><path d="M645.643 11.7h-.629v462.937h.629z" fill="#dbdbdb"/><path d="M644.868 11.7h-.63v462.937h.63z" fill="#e0e1e2"/><path d="M644.09 11.7h-.63v462.937h.63z" fill="#e0e2e3"/><path d="M642.537 11.7h-.63v462.937h.63z" fill="#e4e4e5"/><path d="M641.762 11.7h-.629v462.937h.629z" fill="#e5e5e6"/><path d="M640.206 11.7h-.629v462.937h.629z" fill="#e6e8e8"/><path d="M639.434 11.7h-.629v462.937h.629z" fill="#e7e9e9"/><path d="M638.657 11.7h-.63v462.937h.63z" fill="#cfcfcf"/><path d="M637.878 11.7h-.629v462.937h.629z" fill="#ebebeb"/><path d="M637.104 11.7h-.63v462.937h.63z" fill="#ececec"/><path d="M636.326 11.7h-.629v462.937h.629z" fill="#ededed"/><path d="M635.55 11.7h-.629v462.937h.629z" fill="#eee"/></g></svg>