<?xml version="1.0" encoding="UTF-8" standalone="no"?>
<svg
   xmlns:dc="http://purl.org/dc/elements/1.1/"
   xmlns:cc="http://creativecommons.org/ns#"
   xmlns:rdf="http://www.w3.org/1999/02/22-rdf-syntax-ns#"
   xmlns:svg="http://www.w3.org/2000/svg"
   xmlns="http://www.w3.org/2000/svg"
   viewBox="0 0 682.67065 284.42667"
   height="284.42667"
   width="682.67065"
   xml:space="preserve"
   id="svg2"
   version="1.1"><metadata
     id="metadata8"><rdf:RDF><cc:Work
         rdf:about=""><dc:format>image/svg+xml</dc:format><dc:type
           rdf:resource="http://purl.org/dc/dcmitype/StillImage" /></cc:Work></rdf:RDF></metadata><defs
     id="defs6"><clipPath
       id="clipPath18"
       clipPathUnits="userSpaceOnUse"><path
         id="path16"
         d="M 0,213.32 H 512.003 V 0 H 0 Z" /></clipPath></defs><g
     transform="matrix(1.3333333,0,0,-1.3333333,0,284.42667)"
     id="g10"><g
       id="g12"><g
         clip-path="url(#clipPath18)"
         id="g14"><g
           transform="translate(128,170.6561)"
           id="g20"><path
             id="path22"
             style="fill:#000000;fill-opacity:1;fill-rule:nonzero;stroke:none"
             d="m 0,0 c -35.344,0 -64,-28.656 -64,-64 0,-5.891 4.781,-10.656 10.672,-10.656 5.891,0 10.656,4.766 10.656,10.656 0,23.523 19.141,42.664 42.672,42.664 5.891,0 10.672,4.781 10.672,10.672 C 10.672,-4.773 5.891,0 0,0" /></g><g
           transform="translate(384,170.6561)"
           id="g24"><path
             id="path26"
             style="fill:#000000;fill-opacity:1;fill-rule:nonzero;stroke:none"
             d="m 0,0 c -35.344,0 -64,-28.656 -64,-64 0,-5.891 4.781,-10.656 10.672,-10.656 5.89,0 10.656,4.766 10.656,10.656 0,23.523 19.141,42.664 42.672,42.664 5.891,0 10.672,4.781 10.672,10.672 C 10.672,-4.773 5.891,0 0,0" /></g><g
           transform="translate(444.3437,46.3123)"
           id="g28"><path
             id="path30"
             style="fill:#000000;fill-opacity:1;fill-rule:nonzero;stroke:none"
             d="m 0,0 c -16.125,-16.109 -37.547,-25 -60.344,-25 -22.797,0 -44.219,8.891 -60.344,25 -16.109,16.125 -24.984,37.547 -24.984,60.344 0,22.797 8.875,44.219 24.984,60.344 16.125,16.109 37.547,24.992 60.344,24.992 22.797,0 44.219,-8.883 60.344,-24.992 C 16.109,104.563 24.984,83.141 24.984,60.344 24.984,37.547 16.109,16.125 0,0 m -256,0 c -16.125,-16.109 -37.547,-25 -60.344,-25 -22.797,0 -44.219,8.891 -60.344,25 -16.109,16.125 -24.984,37.547 -24.984,60.344 0,22.797 8.875,44.219 24.984,60.344 16.125,16.109 37.547,24.992 60.344,24.992 22.797,0 44.219,-8.883 60.344,-24.992 16.109,-16.125 24.984,-37.547 24.984,-60.344 C -231.016,37.547 -239.891,16.125 -256,0 M 56.984,71.008 H 45.796 c -5.358,53.906 -50.827,96 -106.141,96 -55.313,0 -100.781,-42.094 -106.14,-96 h -43.72 c -5.358,53.906 -50.828,96 -106.141,96 -55.313,0 -100.781,-42.094 -106.141,-96 h -11.185 c -5.891,0 -10.672,-4.773 -10.672,-10.664 0,-5.891 4.781,-10.656 10.672,-10.656 h 11.188 c 5.359,-53.907 50.828,-96.001 106.141,-96.001 55.313,0 100.781,42.094 106.141,96.001 h 43.72 c 5.358,-53.907 50.828,-96.001 106.14,-96.001 55.314,0 100.781,42.094 106.141,96.001 h 11.188 c 5.891,0 10.672,4.766 10.672,10.656 0,5.89 -4.784,10.664 -10.675,10.664" /></g></g></g></g></svg>