<?xml version="1.0" encoding="UTF-8" standalone="no"?>
<svg
   xmlns:dc="http://purl.org/dc/elements/1.1/"
   xmlns:cc="http://creativecommons.org/ns#"
   xmlns:rdf="http://www.w3.org/1999/02/22-rdf-syntax-ns#"
   xmlns:svg="http://www.w3.org/2000/svg"
   xmlns="http://www.w3.org/2000/svg"
   viewBox="0 0 866.45465 654.91736"
   height="560"
   width="424"
   xml:space="preserve"
   id="svg2"
   version="1.1"><metadata
     id="metadata8"><rdf:RDF><cc:Work
         rdf:about=""><dc:format>image/svg+xml</dc:format><dc:type
           rdf:resource="http://purl.org/dc/dcmitype/StillImage" /></cc:Work></rdf:RDF></metadata><defs
     id="defs6"><clipPath
       id="clipPath18"
       clipPathUnits="userSpaceOnUse"><path
         id="path16"
         d="M 5.75,473.486 C 2.575,473.486 0,470.868 0,467.64 v 0 V 13.47 C 0,10.243 2.575,7.624 5.75,7.624 v 0 h 638.339 c 3.182,0 5.752,2.619 5.752,5.846 v 0 454.17 c 0,3.228 -2.57,5.846 -5.752,5.846 v 0 z" /></clipPath><linearGradient
       id="linearGradient28"
       spreadMethod="pad"
       gradientTransform="matrix(0,-469.84116,-469.84116,0,324.92056,474.09241)"
       gradientUnits="userSpaceOnUse"
       y2="0"
       x2="1"
       y1="0"
       x1="0"><stop
         id="stop24"
         offset="0"
         style="stop-opacity:1;stop-color:#cccccc" /><stop
         id="stop26"
         offset="1"
         style="stop-opacity:1;stop-color:#a5a3a3" /></linearGradient><clipPath
       id="clipPath38"
       clipPathUnits="userSpaceOnUse"><path
         id="path36"
         d="M 0,491.187 H 649.841 V 0 H 0 Z" /></clipPath><clipPath
       id="clipPath54"
       clipPathUnits="userSpaceOnUse"><path
         id="path52"
         d="M 320.777,473.486 V 11.802 c 0,0 18.189,-5.901 92.679,-5.901 v 0 c 74.489,0 221.993,5.799 221.993,5.799 v 0 462.937 c 0,0 -150.453,4.751 -221.257,4.751 v 0 c -70.801,0 -93.415,-5.902 -93.415,-5.902" /></clipPath><linearGradient
       id="linearGradient74"
       spreadMethod="pad"
       gradientTransform="matrix(314.67279,0,0,-314.67279,320.77673,242.64455)"
       gradientUnits="userSpaceOnUse"
       y2="0"
       x2="1"
       y1="0"
       x1="0"><stop
         id="stop60"
         offset="0"
         style="stop-opacity:1;stop-color:#303030" /><stop
         id="stop62"
         offset="0.06307482"
         style="stop-opacity:1;stop-color:#dbdbdb" /><stop
         id="stop64"
         offset="0.134941"
         style="stop-opacity:1;stop-color:#dbdbdb" /><stop
         id="stop66"
         offset="0.26932039"
         style="stop-opacity:1;stop-color:#f4f4f4" /><stop
         id="stop68"
         offset="0.409294"
         style="stop-opacity:1;stop-color:#f4f4f4" /><stop
         id="stop70"
         offset="0.51596155"
         style="stop-opacity:1;stop-color:#f4f4f4" /><stop
         id="stop72"
         offset="1"
         style="stop-opacity:1;stop-color:#f0f0f0" /></linearGradient><clipPath
       id="clipPath84"
       clipPathUnits="userSpaceOnUse"><path
         id="path82"
         d="m 227.358,491.188 c -70.801,0 -221.255,-16.551 -221.255,-16.551 v 0 V 7.7 c 0,0 147.504,-7.7 221.992,-7.7 v 0 c 74.49,0 92.682,11.802 92.682,11.802 v 0 461.684 c 0,0 -22.617,17.702 -93.419,17.702 z" /></clipPath><linearGradient
       id="linearGradient102"
       spreadMethod="pad"
       gradientTransform="matrix(-314.67389,0,0,-314.67389,320.77673,245.59375)"
       gradientUnits="userSpaceOnUse"
       y2="0"
       x2="1"
       y1="0"
       x1="0"><stop
         id="stop90"
         offset="0"
         style="stop-opacity:1;stop-color:#918f8e" /><stop
         id="stop92"
         offset="0.204301"
         style="stop-opacity:1;stop-color:#d9d9d9" /><stop
         id="stop94"
         offset="0.36493588"
         style="stop-opacity:1;stop-color:#f4f4f4" /><stop
         id="stop96"
         offset="0.532258"
         style="stop-opacity:1;stop-color:#f4f4f4" /><stop
         id="stop98"
         offset="0.61672116"
         style="stop-opacity:1;stop-color:#f4f4f4" /><stop
         id="stop100"
         offset="1"
         style="stop-opacity:1;stop-color:#f0f0f0" /></linearGradient><clipPath
       id="clipPath112"
       clipPathUnits="userSpaceOnUse"><path
         id="path110"
         d="M 0,491.187 H 649.841 V 0 H 0 Z" /></clipPath></defs><g
     transform="matrix(1.3333333,0,0,-1.3333333,0,654.91733)"
     id="g10"><g
       id="g12"><g
         clip-path="url(#clipPath18)"
         id="g14"><g
           id="g20"><g
             id="g22"><path
               id="path30"
               style="fill:url(#linearGradient28);stroke:none"
               d="M 5.75,473.486 C 2.575,473.486 0,470.868 0,467.64 v 0 V 13.47 C 0,10.243 2.575,7.624 5.75,7.624 v 0 h 638.339 c 3.182,0 5.752,2.619 5.752,5.846 v 0 454.17 c 0,3.228 -2.57,5.846 -5.752,5.846 v 0 z" /></g></g></g></g><g
       id="g32"><g
         clip-path="url(#clipPath38)"
         id="g34"><g
           transform="translate(3.3802,18.459)"
           id="g40"><path
             id="path42"
             style="fill:#8a8a8a;fill-opacity:1;fill-rule:nonzero;stroke:none"
             d="M 0,0 C 0,0 1.629,-4.077 3.282,-4.077 H 630.933 L 642.427,0 Z" /></g><g
           transform="translate(645.8069,11.7002)"
           id="g44"><path
             id="path46"
             style="fill:#c9c9c9;fill-opacity:1;fill-rule:nonzero;stroke:none"
             d="M 0,0 -32.358,6 V 452.937 L 0,462.937 Z" /></g></g></g><g
       id="g48"><g
         clip-path="url(#clipPath54)"
         id="g50"><g
           id="g56"><g
             id="g58"><path
               id="path76"
               style="fill:url(#linearGradient74);stroke:none"
               d="M 320.777,473.486 V 11.802 c 0,0 18.189,-5.901 92.679,-5.901 v 0 c 74.489,0 221.993,5.799 221.993,5.799 v 0 462.937 c 0,0 -150.453,4.751 -221.257,4.751 v 0 c -70.801,0 -93.415,-5.902 -93.415,-5.902" /></g></g></g></g><g
       id="g78"><g
         clip-path="url(#clipPath84)"
         id="g80"><g
           id="g86"><g
             id="g88"><path
               id="path104"
               style="fill:url(#linearGradient102);stroke:none"
               d="m 227.358,491.188 c -70.801,0 -221.255,-16.551 -221.255,-16.551 v 0 V 7.7 c 0,0 147.504,-7.7 221.992,-7.7 v 0 c 74.49,0 92.682,11.802 92.682,11.802 v 0 461.684 c 0,0 -22.617,17.702 -93.419,17.702 z" /></g></g></g></g><g
       id="g106"><g
         clip-path="url(#clipPath112)"
         id="g108"><path
           id="path114"
           style="fill:#dbdbdb;fill-opacity:1;fill-rule:nonzero;stroke:none"
           d="M 6.472,7.7 H 5.733 v 466.937 h 0.739 z" /><path
           id="path116"
           style="fill:#e0e1e2;fill-opacity:1;fill-rule:nonzero;stroke:none"
           d="M 5.565,7.7 H 4.828 v 466.937 h 0.737 z" /><path
           id="path118"
           style="fill:#e0e2e3;fill-opacity:1;fill-rule:nonzero;stroke:none"
           d="M 4.657,7.7 H 3.92 v 466.937 h 0.737 z" /><path
           id="path120"
           style="fill:#e1e3e4;fill-opacity:1;fill-rule:nonzero;stroke:none"
           d="M 3.749,7.7 H 3.012 v 466.937 h 0.737 z" /><path
           id="path122"
           style="fill:#dbdbdb;fill-opacity:1;fill-rule:nonzero;stroke:none"
           d="m 645.643,11.7 h -0.629 v 462.937 h 0.629 z" /><path
           id="path124"
           style="fill:#e0e1e2;fill-opacity:1;fill-rule:nonzero;stroke:none"
           d="m 644.868,11.7 h -0.63 v 462.937 h 0.63 z" /><path
           id="path126"
           style="fill:#e0e2e3;fill-opacity:1;fill-rule:nonzero;stroke:none"
           d="m 644.09,11.7 h -0.63 v 462.937 h 0.63 z" /><path
           id="path128"
           style="fill:#e4e4e5;fill-opacity:1;fill-rule:nonzero;stroke:none"
           d="m 642.537,11.7 h -0.63 v 462.937 h 0.63 z" /><path
           id="path130"
           style="fill:#e5e5e6;fill-opacity:1;fill-rule:nonzero;stroke:none"
           d="m 641.762,11.7 h -0.629 v 462.937 h 0.629 z" /><path
           id="path132"
           style="fill:#e6e8e8;fill-opacity:1;fill-rule:nonzero;stroke:none"
           d="m 640.206,11.7 h -0.629 v 462.937 h 0.629 z" /><path
           id="path134"
           style="fill:#e7e9e9;fill-opacity:1;fill-rule:nonzero;stroke:none"
           d="m 639.434,11.7 h -0.629 v 462.937 h 0.629 z" /><path
           id="path136"
           style="fill:#cfcfcf;fill-opacity:1;fill-rule:nonzero;stroke:none"
           d="m 638.657,11.7 h -0.63 v 462.937 h 0.63 z" /><path
           id="path138"
           style="fill:#ebebeb;fill-opacity:1;fill-rule:nonzero;stroke:none"
           d="m 637.878,11.7 h -0.629 v 462.937 h 0.629 z" /><path
           id="path140"
           style="fill:#ececec;fill-opacity:1;fill-rule:nonzero;stroke:none"
           d="m 637.104,11.7 h -0.63 v 462.937 h 0.63 z" /><path
           id="path142"
           style="fill:#ededed;fill-opacity:1;fill-rule:nonzero;stroke:none"
           d="m 636.326,11.7 h -0.629 v 462.937 h 0.629 z" /><path
           id="path144"
           style="fill:#eeeeee;fill-opacity:1;fill-rule:nonzero;stroke:none"
           d="m 635.55,11.7 h -0.629 v 462.937 h 0.629 z" /></g></g></g></svg>