<svg xmlns="http://www.w3.org/2000/svg" viewBox="0 0 682 284"><defs><clipPath id="a"><path d="M0 213.32h512.003V0H0z"/></clipPath></defs><g clip-path="url(#a)" transform="matrix(1.33333 0 0 -1.33333 0 284.427)"><path d="M128 170.656c-35.344 0-64-28.656-64-64C64 100.766 68.781 96 74.672 96a10.65 10.65 0 0 1 10.656 10.656c0 23.523 19.141 42.664 42.672 42.664 5.891 0 10.672 4.781 10.672 10.672 0 5.891-4.781 10.664-10.672 10.664m256 0c-35.344 0-64-28.656-64-64 0-5.89 4.781-10.656 10.672-10.656a10.65 10.65 0 0 1 10.656 10.656c0 23.523 19.141 42.664 42.672 42.664 5.891 0 10.672 4.781 10.672 10.672 0 5.891-4.781 10.664-10.672 10.664"/><path d="M444.344 46.312c-16.125-16.109-37.547-25-60.344-25-22.797 0-44.22 8.891-60.344 25-16.11 16.125-24.984 37.547-24.984 60.344 0 22.797 8.875 44.22 24.984 60.344 16.125 16.11 37.547 24.992 60.344 24.992 22.797 0 44.219-8.883 60.344-24.992 16.109-16.125 24.984-37.547 24.984-60.344 0-22.797-8.875-44.219-24.984-60.344m-256 0c-16.125-16.109-37.547-25-60.344-25-22.797 0-44.22 8.891-60.344 25-16.11 16.125-24.984 37.547-24.984 60.344 0 22.797 8.875 44.22 24.984 60.344 16.125 16.11 37.547 24.992 60.344 24.992 22.797 0 44.219-8.883 60.344-24.992 16.109-16.125 24.984-37.547 24.984-60.344 0-22.797-8.875-44.219-24.984-60.344m312.984 71.008H490.14c-5.358 53.906-50.827 96-106.141 96-55.313 0-100.781-42.094-106.14-96h-43.72c-5.358 53.906-50.828 96-106.141 96s-100.781-42.094-106.141-96H10.672C4.78 117.32 0 112.547 0 106.656 0 100.766 4.78 96 10.672 96H21.86C27.219 42.093 72.688 0 128 0c55.314 0 100.782 42.093 106.142 96h43.72c5.358-53.907 50.828-96 106.14-96 55.314 0 100.78 42.093 106.14 96h11.189c5.89 0 10.672 4.766 10.672 10.656 0 5.89-4.784 10.664-10.675 10.664"/></g></svg>