<svg xmlns="http://www.w3.org/2000/svg" viewBox="0 0 617 200"><defs><clipPath id="a"><path d="M0 117.875h462.754V0H0z"/></clipPath></defs><path d="M0 123.147v11.501h39.099l-.023-11.501z" fill="#28304a"/><g clip-path="url(#a)" transform="matrix(1.33333 0 0 -1.33333 0 157.167)"><path d="M98.942 25.515l-.877-3.162c-1.61-5.84-6.967-9.916-13.027-9.916-6.062 0-11.418 4.076-13.03 9.916l-.872 3.162h-27.19l-.011-8.627H64.83C68.356 9.046 76.243 3.81 85.037 3.81s16.68 5.236 20.207 13.078h64.83v8.627z" fill="#28304a"/><path d="M42.946 16.535l-6.319 4.408-6.32-4.408v14.959a66.62 66.62 0 0 1 12.64 3.695zM21.678 30.42V0l14.95 10.424L51.573 0v39.433c.862.504-32.469-9.18-29.896-9.013" fill="#e8714a"/><path d="M194.48 31.937c-.562 0-1.106-.018-1.635-.05-.528-.033-.875-.066-1.04-.098v-10.5c.43-.034.85-.049 1.263-.049h1.214c1.551 0 2.781.461 3.69 1.386.907.924 1.361 2.278 1.361 4.061 0 1.947-.438 3.31-1.313 4.086-.875.775-2.055 1.164-3.54 1.164m9.756 11.391h-12.43v-6.587c.362.065.9.106 1.61.124.71.015 1.46.024 2.252.024 1.551 0 2.971-.173 4.26-.52 1.287-.346 2.393-.9 3.318-1.659.923-.759 1.641-1.775 2.154-3.046.512-1.271.767-2.815.767-4.63 0-1.949-.305-3.616-.916-5.002-.61-1.387-1.46-2.527-2.55-3.417-1.089-.892-2.402-1.544-3.937-1.957-1.536-.412-3.212-.619-5.027-.619a70.6 70.6 0 0 0-5.225.173c-1.535.117-2.732.174-3.59.174v32.588h19.314zm25.753-1.487V16.386h-6.39v12.232c0 .462.026.95.076 1.461.048.512.074.9.074 1.164h-.05l-8.52-14.857h-5.594v25.455h6.388V29.015c0-.397-.025-.834-.074-1.313-.05-.479-.074-.85-.074-1.115.032 0 .049-.017.049-.049l8.617 15.303zm14.114-6.339c-.958 0-1.692-.165-2.204-.495a2.959 2.959 0 0 1-1.14-1.386c-.247-.595-.387-1.306-.42-2.13a68.702 68.702 0 0 1-.05-2.724c0-2.84.28-4.87.842-6.092.562-1.222 1.519-1.832 2.873-1.832 1.387 0 2.36.627 2.922 1.882.56 1.255.842 3.12.842 5.596 0 2.477-.272 4.291-.816 5.448-.545 1.156-1.495 1.734-2.85 1.734m9.064 13.471a46.817 46.817 0 0 1-2.798-1.882 15.73 15.73 0 0 0-2.947-1.685c-1.156-.495-2.146-.99-2.971-1.485a9.826 9.826 0 0 1-2.105-1.658 7.542 7.542 0 0 1-1.387-2.057c-.346-.76-.62-1.65-.817-2.674.165.23.404.496.719.793.312.297.7.577 1.163.842.462.264.99.486 1.585.668.594.182 1.27.273 2.03.273 2.707 0 4.878-.933 6.513-2.798 1.635-1.866 2.45-4.73 2.45-8.592 0-2.246-.255-4.178-.767-5.795-.511-1.618-1.238-2.964-2.178-4.037a8.588 8.588 0 0 0-3.393-2.377c-1.321-.512-2.79-.768-4.407-.768-1.585 0-3.022.223-4.31.669-1.287.446-2.377 1.214-3.268 2.303-.891 1.09-1.584 2.575-2.08 4.458-.494 1.88-.742 4.258-.742 7.13 0 3.104.263 5.778.792 8.024.528 2.244 1.32 4.168 2.377 5.77a15.09 15.09 0 0 0 3.937 4.06c1.567 1.107 3.409 2.056 5.522 2.848.759.298 1.51.66 2.253 1.09.744.429 1.494.825 2.253 1.189zm24.91-32.588h-6.636v20.206h-4.853c-.132-5.118-.43-9.592-.892-13.42-.166-1.323-.42-2.429-.767-3.319-.347-.893-.834-1.61-1.46-2.155-.628-.544-1.406-.94-2.329-1.189-.924-.248-2.047-.37-3.368-.37a13.1 13.1 0 0 0-1.634.1l.347 4.604c.363.1.7.19 1.015.272.313.082.602.223.866.421.264.198.496.487.693.867.2.38.348.932.447 1.66.297 2.277.536 4.878.717 7.8.182 2.921.338 6.248.471 9.978h17.383zm24.961 25.455V16.386h-6.389v12.232c0 .462.026.95.075 1.461.05.512.074.9.074 1.164h-.049l-8.519-14.857h-5.596v25.455h6.388V29.015c0-.397-.024-.834-.074-1.313-.049-.479-.074-.85-.074-1.115.033 0 .05-.017.05-.049l8.617 15.303zm18.324-12.727c0 2.972-.322 5.108-.965 6.413-.644 1.305-1.66 1.957-3.047 1.957-1.386 0-2.4-.652-3.045-1.957-.644-1.305-.966-3.441-.966-6.413 0-3.005.322-5.16.966-6.463.644-1.305 1.66-1.956 3.045-1.956 1.387 0 2.403.65 3.047 1.956.643 1.304.965 3.458.965 6.463m6.934 0c0-2.411-.264-4.458-.792-6.142-.529-1.683-1.272-3.062-2.229-4.134a8.278 8.278 0 0 0-3.442-2.328c-1.337-.48-2.83-.718-4.483-.718-1.65 0-3.152.239-4.506.718a8.068 8.068 0 0 0-3.442 2.328c-.94 1.072-1.667 2.45-2.179 4.134-.512 1.684-.767 3.73-.767 6.142 0 2.378.255 4.407.767 6.092.512 1.683 1.24 3.06 2.18 4.136a8.102 8.102 0 0 0 3.441 2.327c1.354.477 2.856.717 4.506.717 1.652 0 3.146-.24 4.483-.717a8.314 8.314 0 0 0 3.442-2.327c.957-1.075 1.7-2.453 2.23-4.136.527-1.685.791-3.714.791-6.092m19.711 7.428h-5.844V16.386h-6.636v20.156h-5.944v5.3h18.375zm11.539 1.09c-.43 0-.859-.116-1.287-.347-.43-.23-.811-.602-1.14-1.114-.331-.513-.602-1.182-.817-2.006-.215-.826-.322-1.832-.322-3.02h2.922c1.221 0 2.509.032 3.863.098 0 1.254-.082 2.294-.247 3.12-.165.826-.389 1.478-.669 1.957-.282.478-.619.816-1.016 1.015a2.847 2.847 0 0 1-1.287.297m8.914-19.414c-.197-.133-.527-.33-.99-.594-.463-.265-1.065-.537-1.808-.818-.743-.28-1.609-.52-2.599-.718-.992-.198-2.097-.297-3.319-.297-1.453 0-2.806.24-4.061.718a8.57 8.57 0 0 0-3.293 2.254c-.942 1.023-1.684 2.328-2.229 3.912-.545 1.585-.817 3.5-.817 5.745 0 2.378.272 4.441.817 6.191.545 1.75 1.28 3.202 2.203 4.358.924 1.155 2.006 2.014 3.244 2.575a9.55 9.55 0 0 0 3.988.842c1.419 0 2.716-.223 3.888-.668a7.446 7.446 0 0 0 3.021-2.13c.842-.974 1.502-2.204 1.98-3.689.479-1.486.719-3.269.719-5.349 0-.892-.043-1.659-.125-2.303-.082-.644-.14-1.033-.173-1.164h-12.926c.033-2.213.528-3.806 1.486-4.779.957-.975 2.146-1.46 3.566-1.46 1.321 0 2.517.222 3.59.667 1.072.446 1.906.801 2.502 1.064zm4.011 23.623h6.638V30.798l6.437 11.043h7.479l-8.172-11.34 9.063-14.115h-7.973l-6.834 12.133V16.386h-6.637zm30.954-21.196c.527 0 .99.074 1.387.223.396.15.742.34 1.039.57.298.23.545.47.744.718l.494.62v5.595h-.668a4.74 4.74 0 0 0-.67.05c-1.881 0-3.218-.298-4.01-.892-.793-.594-1.19-1.684-1.19-3.269 0-1.156.23-2.048.694-2.675.463-.627 1.19-.94 2.18-.94m4.16-4.259c-.066.461-.124.924-.174 1.387-.048.461-.107.924-.173 1.387-.166-.166-.396-.43-.694-.793-.297-.364-.693-.735-1.187-1.115-.496-.379-1.116-.717-1.858-1.014-.743-.298-1.61-.447-2.6-.447-.925 0-1.8.15-2.624.447a5.603 5.603 0 0 0-2.155 1.386c-.611.626-1.098 1.418-1.461 2.377-.364.957-.545 2.113-.545 3.467 0 3.136.99 5.381 2.97 6.735 1.983 1.353 4.937 2.031 8.866 2.031l1.139-.1v.595c0 1.022-.107 1.841-.321 2.452-.216.61-.513 1.08-.892 1.411-.38.33-.826.544-1.338.644a9.018 9.018 0 0 1-1.708.148c-1.122 0-2.27-.123-3.442-.37-1.172-.249-2.088-.489-2.748-.72l-.743 4.557c.396.132.883.29 1.46.471.578.181 1.222.346 1.932.495.71.148 1.46.28 2.253.396.793.116 1.602.173 2.428.173 3.4 0 5.876-.8 7.428-2.402 1.552-1.602 2.328-4.085 2.328-7.453V16.386z" fill="#28304a"/><path d="M439.081 16.386h-19.018v4.804c.396.428.957 1.022 1.684 1.782.726.76 1.52 1.635 2.378 2.625.857.99 1.732 2.056 2.625 3.195a37.186 37.186 0 0 1 2.426 3.49 22.125 22.125 0 0 1 1.783 3.592c.462 1.204.693 2.352.693 3.442 0 3.235-1.435 4.853-4.308 4.853-.628 0-1.246-.049-1.858-.148a16.156 16.156 0 0 1-3.095-.818 9.368 9.368 0 0 1-.89-.372 64.67 64.67 0 0 0-.57 2.354 276.28 276.28 0 0 0-.52 2.351c.263.133.667.315 1.212.545a18.31 18.31 0 0 0 1.907.67 23.95 23.95 0 0 0 2.451.57c.908.164 1.874.247 2.898.247 3.235 0 5.678-.752 7.33-2.254 1.65-1.502 2.476-3.69 2.476-6.562 0-1.882-.339-3.707-1.015-5.472a26.14 26.14 0 0 0-2.6-5.052 37.085 37.085 0 0 0-3.517-4.53 86.7 86.7 0 0 0-3.764-3.914c1.717.065 3.492.131 5.324.198 1.832.066 3.822.1 5.968.1zm16.739 32.588l-7.974-18.572h5.497v5.695l6.834.99v-6.685h2.577v-5.547h-2.577v-8.469h-6.834v8.47h-13.222v4.456l8.666 19.662z" fill="#e8714a"/><path d="M161.445 43.117c4.23.539 8.61 1.86 8.61 1.86-.57 17.659-15.107 31.846-32.899 31.846a33.04 33.04 0 0 1-4.182-.267c-2.479 13.393-14.259 23.58-28.348 23.58-2.093 0-4.165-.227-6.195-.673-7.987 11.433-21.205 18.413-35.256 18.413-23.689 0-42.71-18.626-42.957-43.603a33.241 33.241 0 0 1-13.576-10.54A32.58 32.58 0 0 1 .02 44.98s3.392-1.105 8.613-1.865c-.402 10.883 7.11 21.006 17.301 24.057l3.384 1.013-.327 3.518c-.099 1.08-.15 2.16-.15 3.21 0 18.933 15.402 34.335 34.334 34.335 12.13 0 23.484-6.51 29.633-16.986l1.796-3.061 3.35 1.174a20.2 20.2 0 0 0 6.672 1.133c11.112 0 20.174-9.043 20.2-20.157l.015-5.736 5.507 1.606c2.218.646 4.51.974 6.808.974 13.394 0 24.25-10.674 24.29-25.078" fill="#0095d6"/><path d="M120.543 48.242c-7.517 4.893-14.868 6.424-21.85 4.547-6.201-1.663-10.751-5.73-13.655-9.182-2.905 3.453-7.455 7.519-13.656 9.182-6.982 1.877-14.333.346-21.85-4.547-20.9-13.613-43.038-8.85-49.527-6.996v-8.922a74.086 74.086 0 0 1 13.984-1.971c14.6-.668 28.523 3.022 40.252 10.657 5.357 3.49 10.354 4.652 14.85 3.464 0 0 8.08-1.732 15.914-14.132v-.102a.89.89 0 0 0 .033.05l.032-.05v.102c7.834 12.4 15.913 14.132 15.913 14.132 4.497 1.188 9.495.026 14.85-3.464 11.73-7.635 25.653-11.325 40.253-10.657a74.074 74.074 0 0 1 13.984 1.97v8.923c-6.49-1.854-28.627-6.617-49.527 6.996" fill="#28304a"/></g></svg>