<?xml version="1.0" encoding="UTF-8" standalone="no"?>
<svg
   xmlns:dc="http://purl.org/dc/elements/1.1/"
   xmlns:cc="http://creativecommons.org/ns#"
   xmlns:rdf="http://www.w3.org/1999/02/22-rdf-syntax-ns#"
   xmlns:svg="http://www.w3.org/2000/svg"
   xmlns="http://www.w3.org/2000/svg"
   viewBox="0 0 617.00531 157.16667"
   height="157.16667"
   width="617.00531"
   xml:space="preserve"
   id="svg2"
   version="1.1"><metadata
     id="metadata8"><rdf:RDF><cc:Work
         rdf:about=""><dc:format>image/svg+xml</dc:format><dc:type
           rdf:resource="http://purl.org/dc/dcmitype/StillImage" /></cc:Work></rdf:RDF></metadata><defs
     id="defs6"><clipPath
       id="clipPath22"
       clipPathUnits="userSpaceOnUse"><path
         id="path20"
         d="M 0,117.875 H 462.754 V 0 H 0 Z" /></clipPath></defs><g
     transform="matrix(1.3333333,0,0,-1.3333333,0,157.16667)"
     id="g10"><g
       transform="translate(0,25.515)"
       id="g12"><path
         id="path14"
         style="fill:#28304a;fill-opacity:1;fill-rule:nonzero;stroke:none"
         d="M 0,0 V -8.626 H 29.324 L 29.307,0 Z" /></g><g
       id="g16"><g
         clip-path="url(#clipPath22)"
         id="g18"><g
           transform="translate(98.9415,25.5152)"
           id="g24"><path
             id="path26"
             style="fill:#28304a;fill-opacity:1;fill-rule:nonzero;stroke:none"
             d="m 0,0 -0.877,-3.162 c -1.61,-5.84 -6.967,-9.916 -13.027,-9.916 -6.062,0 -11.418,4.076 -13.029,9.916 L -27.806,0 h -27.189 l -0.012,-8.627 h 20.896 c 3.526,-7.842 11.414,-13.078 20.207,-13.078 8.793,0 16.68,5.236 20.207,13.078 h 64.83 V 0 Z" /></g><g
           transform="translate(42.9464,16.5347)"
           id="g28"><path
             id="path30"
             style="fill:#e8714a;fill-opacity:1;fill-rule:nonzero;stroke:none"
             d="M 0,0 -6.319,4.408 -12.64,0 v 14.959 c 4.354,0.818 8.581,2.057 12.64,3.695 z m -21.268,13.885 v -30.42 L -6.319,-6.111 8.628,-16.535 v 39.433 c 0.862,0.504 -32.469,-9.179 -29.896,-9.013" /></g><g
           transform="translate(194.4791,31.937)"
           id="g32"><path
             id="path34"
             style="fill:#28304a;fill-opacity:1;fill-rule:nonzero;stroke:none"
             d="m 0,0 c -0.561,0 -1.105,-0.018 -1.634,-0.05 -0.528,-0.033 -0.875,-0.066 -1.04,-0.098 v -10.5 c 0.429,-0.034 0.85,-0.049 1.263,-0.049 h 1.214 c 1.551,0 2.781,0.461 3.689,1.386 0.908,0.924 1.362,2.278 1.362,4.061 0,1.947 -0.438,3.31 -1.313,4.086 C 2.666,-0.389 1.486,0 0,0 M 9.757,11.391 H -2.674 V 4.804 c 0.363,0.065 0.9,0.106 1.61,0.124 0.71,0.015 1.46,0.024 2.253,0.024 1.551,0 2.971,-0.173 4.259,-0.52 1.288,-0.346 2.394,-0.9 3.319,-1.659 0.923,-0.759 1.641,-1.775 2.154,-3.046 0.512,-1.271 0.767,-2.815 0.767,-4.63 0,-1.949 -0.305,-3.616 -0.916,-5.002 -0.611,-1.387 -1.46,-2.527 -2.55,-3.417 -1.089,-0.892 -2.402,-1.544 -3.937,-1.957 -1.536,-0.412 -3.212,-0.619 -5.027,-0.619 -1.949,0 -3.69,0.058 -5.225,0.173 -1.535,0.117 -2.732,0.174 -3.591,0.174 V 17.037 H 9.757 Z" /></g><g
           transform="translate(229.9888,41.8413)"
           id="g36"><path
             id="path38"
             style="fill:#28304a;fill-opacity:1;fill-rule:nonzero;stroke:none"
             d="m 0,0 v -25.455 h -6.389 v 12.232 c 0,0.462 0.025,0.95 0.075,1.461 0.048,0.512 0.074,0.899 0.074,1.164 h -0.05 l -8.519,-14.857 h -5.595 V 0 h 6.388 v -12.826 c 0,-0.397 -0.025,-0.834 -0.074,-1.313 -0.05,-0.479 -0.074,-0.85 -0.074,-1.115 0.032,0 0.049,-0.017 0.049,-0.049 L -5.498,0 Z" /></g><g
           transform="translate(244.1026,35.5025)"
           id="g40"><path
             id="path42"
             style="fill:#28304a;fill-opacity:1;fill-rule:nonzero;stroke:none"
             d="m 0,0 c -0.958,0 -1.692,-0.165 -2.204,-0.495 -0.512,-0.33 -0.891,-0.793 -1.139,-1.387 -0.248,-0.594 -0.388,-1.305 -0.421,-2.129 -0.033,-0.826 -0.049,-1.734 -0.049,-2.724 0,-2.84 0.28,-4.871 0.841,-6.092 0.562,-1.222 1.519,-1.832 2.873,-1.832 1.387,0 2.36,0.627 2.922,1.882 0.561,1.255 0.842,3.12 0.842,5.596 0,2.477 -0.272,4.291 -0.816,5.448 C 2.304,-0.578 1.354,0 0,0 M 9.063,13.472 C 8.105,12.876 7.173,12.249 6.265,11.589 5.356,10.929 4.374,10.367 3.318,9.905 2.162,9.409 1.172,8.915 0.347,8.419 -0.479,7.925 -1.181,7.37 -1.758,6.761 -2.336,6.149 -2.798,5.464 -3.145,4.705 -3.491,3.945 -3.764,3.054 -3.962,2.03 c 0.165,0.231 0.404,0.496 0.719,0.793 0.312,0.297 0.701,0.577 1.163,0.842 0.462,0.264 0.991,0.486 1.585,0.668 0.594,0.182 1.27,0.273 2.031,0.273 2.706,0 4.877,-0.933 6.512,-2.798 1.635,-1.866 2.451,-4.73 2.451,-8.592 0,-2.246 -0.256,-4.178 -0.768,-5.795 -0.511,-1.618 -1.238,-2.964 -2.178,-4.037 -0.941,-1.072 -2.073,-1.865 -3.393,-2.377 -1.321,-0.512 -2.79,-0.768 -4.407,-0.768 -1.585,0 -3.022,0.223 -4.309,0.669 -1.288,0.446 -2.378,1.214 -3.269,2.303 -0.891,1.09 -1.584,2.575 -2.08,4.458 -0.494,1.881 -0.742,4.258 -0.742,7.131 0,3.103 0.263,5.777 0.792,8.023 0.528,2.244 1.32,4.168 2.377,5.77 1.056,1.601 2.369,2.955 3.937,4.06 1.567,1.107 3.409,2.056 5.522,2.848 0.759,0.298 1.51,0.66 2.253,1.09 0.744,0.429 1.494,0.825 2.253,1.189 z" /></g><g
           transform="translate(278.0762,16.3863)"
           id="g44"><path
             id="path46"
             style="fill:#28304a;fill-opacity:1;fill-rule:nonzero;stroke:none"
             d="m 0,0 h -6.636 v 20.206 h -4.853 c -0.132,-5.118 -0.43,-9.592 -0.892,-13.421 -0.166,-1.322 -0.421,-2.428 -0.767,-3.318 -0.347,-0.893 -0.834,-1.61 -1.461,-2.155 -0.627,-0.544 -1.405,-0.941 -2.328,-1.189 -0.924,-0.248 -2.047,-0.371 -3.368,-0.371 -0.297,0 -0.578,0.008 -0.841,0.025 -0.266,0.016 -0.53,0.041 -0.793,0.075 l 0.347,4.605 c 0.363,0.099 0.7,0.189 1.015,0.272 0.313,0.082 0.602,0.223 0.866,0.421 0.264,0.198 0.496,0.487 0.693,0.867 0.2,0.379 0.348,0.932 0.447,1.659 0.297,2.278 0.536,4.879 0.717,7.801 0.182,2.921 0.338,6.248 0.471,9.978 H 0 Z" /></g><g
           transform="translate(303.0372,41.8413)"
           id="g48"><path
             id="path50"
             style="fill:#28304a;fill-opacity:1;fill-rule:nonzero;stroke:none"
             d="m 0,0 v -25.455 h -6.389 v 12.232 c 0,0.462 0.026,0.95 0.075,1.461 0.049,0.512 0.074,0.899 0.074,1.164 h -0.049 l -8.519,-14.857 h -5.596 V 0 h 6.388 v -12.826 c 0,-0.397 -0.024,-0.834 -0.074,-1.313 -0.049,-0.479 -0.074,-0.85 -0.074,-1.115 0.033,0 0.05,-0.017 0.05,-0.049 L -5.497,0 Z" /></g><g
           transform="translate(321.3614,29.1138)"
           id="g52"><path
             id="path54"
             style="fill:#28304a;fill-opacity:1;fill-rule:nonzero;stroke:none"
             d="M 0,0 C 0,2.972 -0.322,5.108 -0.965,6.413 -1.609,7.718 -2.625,8.37 -4.012,8.37 -5.398,8.37 -6.413,7.718 -7.057,6.413 -7.701,5.108 -8.023,2.972 -8.023,0 c 0,-3.005 0.322,-5.159 0.966,-6.463 0.644,-1.305 1.659,-1.956 3.045,-1.956 1.387,0 2.403,0.651 3.047,1.956 C -0.322,-5.159 0,-3.005 0,0 m 6.934,0 c 0,-2.411 -0.264,-4.458 -0.792,-6.142 -0.529,-1.683 -1.272,-3.062 -2.229,-4.134 -0.958,-1.074 -2.104,-1.85 -3.442,-2.328 -1.337,-0.479 -2.831,-0.718 -4.483,-0.718 -1.65,0 -3.152,0.239 -4.506,0.718 -1.354,0.478 -2.502,1.254 -3.442,2.328 -0.94,1.072 -1.667,2.451 -2.179,4.134 -0.512,1.684 -0.767,3.731 -0.767,6.142 0,2.378 0.255,4.407 0.767,6.092 0.512,1.683 1.239,3.061 2.179,4.136 0.94,1.072 2.088,1.847 3.442,2.327 1.354,0.477 2.856,0.717 4.506,0.717 1.652,0 3.146,-0.24 4.483,-0.717 C 1.809,12.075 2.955,11.3 3.913,10.228 4.87,9.153 5.613,7.775 6.142,6.092 6.67,4.407 6.934,2.378 6.934,0" /></g><g
           transform="translate(348.0059,36.5425)"
           id="g56"><path
             id="path58"
             style="fill:#28304a;fill-opacity:1;fill-rule:nonzero;stroke:none"
             d="M 0,0 H -5.844 V -20.156 H -12.48 V 0 h -5.944 v 5.299 h 18.375 z" /></g><g
           transform="translate(359.545,37.6324)"
           id="g60"><path
             id="path62"
             style="fill:#28304a;fill-opacity:1;fill-rule:nonzero;stroke:none"
             d="m 0,0 c -0.43,0 -0.859,-0.116 -1.287,-0.347 -0.43,-0.231 -0.811,-0.602 -1.14,-1.114 -0.331,-0.513 -0.602,-1.182 -0.817,-2.006 -0.215,-0.826 -0.322,-1.832 -0.322,-3.021 h 2.922 c 1.221,0 2.509,0.033 3.863,0.099 0,1.254 -0.082,2.294 -0.247,3.119 C 2.807,-2.443 2.583,-1.791 2.303,-1.312 2.021,-0.834 1.684,-0.496 1.287,-0.297 0.892,-0.1 0.462,0 0,0 m 8.914,-19.414 c -0.197,-0.133 -0.527,-0.33 -0.99,-0.594 -0.463,-0.265 -1.065,-0.537 -1.808,-0.818 -0.743,-0.28 -1.609,-0.52 -2.599,-0.718 -0.992,-0.198 -2.097,-0.297 -3.319,-0.297 -1.453,0 -2.806,0.239 -4.061,0.718 -1.255,0.478 -2.352,1.23 -3.293,2.254 -0.942,1.023 -1.684,2.328 -2.229,3.912 -0.545,1.585 -0.817,3.5 -0.817,5.745 0,2.378 0.272,4.441 0.817,6.191 0.545,1.75 1.28,3.202 2.203,4.358 0.924,1.155 2.006,2.014 3.244,2.575 1.239,0.561 2.567,0.842 3.988,0.842 1.419,0 2.716,-0.223 3.888,-0.668 1.171,-0.445 2.178,-1.156 3.021,-2.13 0.842,-0.974 1.502,-2.204 1.98,-3.689 0.479,-1.486 0.719,-3.269 0.719,-5.349 0,-0.892 -0.043,-1.659 -0.125,-2.303 -0.082,-0.644 -0.14,-1.033 -0.173,-1.164 H -3.566 c 0.033,-2.213 0.528,-3.806 1.486,-4.779 0.957,-0.975 2.146,-1.461 3.566,-1.461 1.321,0 2.517,0.223 3.59,0.668 1.072,0.446 1.906,0.801 2.502,1.064 z" /></g><g
           transform="translate(372.4708,41.8413)"
           id="g64"><path
             id="path66"
             style="fill:#28304a;fill-opacity:1;fill-rule:nonzero;stroke:none"
             d="M 0,0 H 6.637 V -11.043 L 13.074,0 h 7.479 l -8.172,-11.341 9.063,-14.114 H 13.471 L 6.637,-13.322 V -25.455 H 0 Z" /></g><g
           transform="translate(403.4239,20.6451)"
           id="g68"><path
             id="path70"
             style="fill:#28304a;fill-opacity:1;fill-rule:nonzero;stroke:none"
             d="M 0,0 C 0.527,0 0.99,0.074 1.387,0.223 1.783,0.372 2.129,0.562 2.426,0.792 2.724,1.022 2.971,1.263 3.17,1.511 3.367,1.758 3.532,1.964 3.664,2.13 V 7.726 H 2.996 C 2.781,7.726 2.559,7.742 2.327,7.775 0.445,7.775 -0.892,7.478 -1.684,6.884 -2.477,6.29 -2.873,5.2 -2.873,3.615 -2.873,2.459 -2.643,1.567 -2.18,0.94 -1.717,0.313 -0.99,0 0,0 M 4.16,-4.259 C 4.094,-3.798 4.036,-3.335 3.986,-2.872 3.938,-2.411 3.879,-1.948 3.813,-1.485 3.647,-1.651 3.417,-1.915 3.119,-2.278 2.822,-2.642 2.426,-3.013 1.932,-3.393 1.436,-3.772 0.816,-4.11 0.074,-4.407 c -0.743,-0.298 -1.609,-0.447 -2.6,-0.447 -0.925,0 -1.8,0.149 -2.624,0.447 -0.827,0.297 -1.545,0.758 -2.155,1.386 -0.611,0.626 -1.098,1.418 -1.461,2.377 -0.364,0.957 -0.545,2.113 -0.545,3.467 0,3.136 0.991,5.381 2.971,6.735 1.982,1.353 4.936,2.031 8.865,2.031 l 1.139,-0.1 v 0.595 c 0,1.022 -0.107,1.841 -0.321,2.452 -0.216,0.61 -0.513,1.08 -0.892,1.411 -0.38,0.329 -0.826,0.544 -1.338,0.644 -0.511,0.099 -1.081,0.148 -1.708,0.148 -1.122,0 -2.27,-0.123 -3.442,-0.371 -1.172,-0.248 -2.088,-0.488 -2.748,-0.719 l -0.743,4.557 c 0.396,0.132 0.883,0.289 1.461,0.471 0.577,0.181 1.221,0.346 1.931,0.495 0.71,0.148 1.461,0.28 2.253,0.396 0.793,0.116 1.602,0.173 2.428,0.173 3.4,0 5.876,-0.801 7.428,-2.402 1.552,-1.602 2.328,-4.085 2.328,-7.453 V -4.259 Z" /></g><g
           transform="translate(439.0811,16.3863)"
           id="g72"><path
             id="path74"
             style="fill:#e8714a;fill-opacity:1;fill-rule:nonzero;stroke:none"
             d="m 0,0 h -19.018 v 4.804 c 0.396,0.428 0.957,1.022 1.684,1.782 0.726,0.76 1.519,1.635 2.378,2.625 0.857,0.99 1.732,2.056 2.625,3.195 0.891,1.139 1.699,2.303 2.426,3.49 0.726,1.19 1.32,2.386 1.783,3.592 0.462,1.204 0.693,2.352 0.693,3.442 0,3.235 -1.435,4.853 -4.308,4.853 -0.628,0 -1.246,-0.049 -1.858,-0.148 -0.611,-0.1 -1.18,-0.223 -1.709,-0.371 -0.527,-0.149 -0.99,-0.298 -1.386,-0.447 -0.396,-0.148 -0.694,-0.272 -0.891,-0.372 -0.198,0.76 -0.389,1.544 -0.57,2.354 -0.182,0.808 -0.356,1.592 -0.52,2.351 0.264,0.133 0.668,0.315 1.213,0.545 0.545,0.231 1.181,0.454 1.907,0.669 0.726,0.214 1.543,0.404 2.451,0.57 0.908,0.165 1.874,0.248 2.898,0.248 3.235,0 5.678,-0.752 7.33,-2.254 1.65,-1.502 2.476,-3.69 2.476,-6.562 0,-1.882 -0.339,-3.707 -1.015,-5.472 C -2.089,17.127 -2.955,15.443 -4.012,13.842 -5.068,12.24 -6.24,10.729 -7.528,9.311 -8.815,7.891 -10.071,6.586 -11.292,5.398 -9.575,5.463 -7.8,5.529 -5.968,5.596 -4.136,5.662 -2.146,5.695 0,5.695 Z" /></g><g
           transform="translate(455.8204,48.9742)"
           id="g76"><path
             id="path78"
             style="fill:#e8714a;fill-opacity:1;fill-rule:nonzero;stroke:none"
             d="m 0,0 -7.974,-18.572 h 5.497 v 5.695 l 6.834,0.99 v -6.685 h 2.577 v -5.547 H 4.357 v -8.469 h -6.834 v 8.469 h -13.222 v 4.457 L -7.033,0 Z" /></g><g
           transform="translate(161.4454,43.1167)"
           id="g80"><path
             id="path82"
             style="fill:#0095d6;fill-opacity:1;fill-rule:nonzero;stroke:none"
             d="M 0,0 C 4.23,0.539 8.609,1.861 8.609,1.861 8.04,19.519 -6.497,33.706 -24.289,33.706 c -1.398,0 -2.795,-0.089 -4.182,-0.267 -2.479,13.393 -14.259,23.58 -28.348,23.58 -2.093,0 -4.165,-0.227 -6.195,-0.673 -7.987,11.433 -21.205,18.413 -35.256,18.413 -23.689,0 -42.71,-18.626 -42.957,-43.603 -5.332,-2.24 -10.07,-5.902 -13.576,-10.539 -4.131,-5.463 -6.406,-11.926 -6.622,-18.754 0,0 3.392,-1.105 8.613,-1.865 -0.402,10.883 7.11,21.006 17.301,24.057 l 3.384,1.013 -0.327,3.518 c -0.099,1.08 -0.15,2.16 -0.15,3.211 0,18.932 15.402,34.334 34.334,34.334 12.129,0 23.484,-6.509 29.633,-16.986 l 1.796,-3.061 3.349,1.174 c 2.149,0.75 4.393,1.133 6.673,1.133 11.112,0 20.174,-9.043 20.2,-20.157 l 0.015,-5.736 5.507,1.606 c 2.218,0.646 4.509,0.974 6.808,0.974 C -10.895,25.078 -0.039,14.404 0,0" /></g><g
           transform="translate(120.5426,48.2417)"
           id="g84"><path
             id="path86"
             style="fill:#28304a;fill-opacity:1;fill-rule:nonzero;stroke:none"
             d="m 0,0 c -7.517,4.893 -14.868,6.424 -21.85,4.547 -6.201,-1.663 -10.751,-5.729 -13.655,-9.182 -2.905,3.453 -7.455,7.519 -13.656,9.182 -6.982,1.877 -14.333,0.346 -21.85,-4.547 -20.9,-13.613 -43.038,-8.85 -49.527,-6.996 v -8.922 c 3.333,-0.809 8.176,-1.707 13.984,-1.971 14.6,-0.668 28.523,3.022 40.252,10.657 5.357,3.49 10.354,4.652 14.851,3.464 0,0 8.079,-1.732 15.913,-14.132 v -0.102 c 0.011,0.018 0.021,0.034 0.033,0.051 0.01,-0.017 0.021,-0.033 0.032,-0.051 v 0.102 c 7.834,12.4 15.913,14.132 15.913,14.132 4.497,1.188 9.495,0.026 14.851,-3.464 11.73,-7.635 25.652,-11.325 40.252,-10.657 5.809,0.264 10.651,1.162 13.984,1.971 v 8.922 C 43.038,-8.85 20.9,-13.613 0,0" /></g></g></g></g></svg>