<svg xmlns="http://www.w3.org/2000/svg" viewBox="0 0 41 60"><defs><clipPath id="a"><path d="M0 0h30.96v44.88H0z"/></clipPath></defs><g clip-path="url(#a)" transform="matrix(1.33333 0 0 -1.33333 0 59.84)" fill="#0094d6"><path d="M15.484 25.566c-2.207 0-4 1.793-4 4 0 2.204 1.793 4 4 4 2.204 0 4-1.796 4-4 0-2.207-1.796-4-4-4m0 9.598a5.606 5.606 0 0 1-5.601-5.598 5.607 5.607 0 0 1 5.6-5.601 5.606 5.606 0 0 1 5.599 5.601 5.605 5.605 0 0 1-5.598 5.598"/><path d="M26.316 19.621L15.343 3.77 4.348 19.644C.191 25.191.785 34.301 5.625 39.141a13.665 13.665 0 0 0 9.718 4.023c3.668 0 7.118-1.43 9.715-4.023 4.84-4.84 5.438-13.95 1.258-19.52m-.125 20.652a15.252 15.252 0 0 1-10.848 4.493 15.255 15.255 0 0 1-10.85-4.493C-.868 34.91-1.537 24.824 3.05 18.711L15.343.961l12.27 17.725c4.605 6.138 3.937 16.224-1.422 21.587"/></g></svg>