<?xml version="1.0" encoding="UTF-8" standalone="no"?>
<svg
   xmlns:dc="http://purl.org/dc/elements/1.1/"
   xmlns:cc="http://creativecommons.org/ns#"
   xmlns:rdf="http://www.w3.org/1999/02/22-rdf-syntax-ns#"
   xmlns:svg="http://www.w3.org/2000/svg"
   xmlns="http://www.w3.org/2000/svg"
   viewBox="0 0 41.279999 59.84"
   height="59.84"
   width="41.279999"
   xml:space="preserve"
   id="svg2"
   version="1.1"><metadata
     id="metadata8"><rdf:RDF><cc:Work
         rdf:about=""><dc:format>image/svg+xml</dc:format><dc:type
           rdf:resource="http://purl.org/dc/dcmitype/StillImage" /></cc:Work></rdf:RDF></metadata><defs
     id="defs6"><clipPath
       id="clipPath18"
       clipPathUnits="userSpaceOnUse"><path
         id="path16"
         d="M 0,0 H 30.96 V 44.88 H 0 Z" /></clipPath></defs><g
     transform="matrix(1.3333333,0,0,-1.3333333,0,59.84)"
     id="g10"><g
       id="g12"><g
         clip-path="url(#clipPath18)"
         id="g14"><g
           transform="translate(15.4839,25.566)"
           id="g20"><path
             id="path22"
             style="fill:#231200;fill-opacity:1;fill-rule:nonzero;stroke:none"
             d="M 0,0 C -2.207,0 -4,1.793 -4,4 -4,6.204 -2.207,8 0,8 2.204,8 4,6.204 4,4 4,1.793 2.204,0 0,0 M 0,9.598 C -3.089,9.598 -5.601,7.086 -5.601,4 -5.601,0.911 -3.089,-1.601 0,-1.601 3.086,-1.601 5.598,0.911 5.598,4 5.598,7.086 3.086,9.598 0,9.598" /></g><g
           transform="translate(26.3164,19.6212)"
           id="g24"><path
             id="path26"
             style="fill:#231200;fill-opacity:1;fill-rule:nonzero;stroke:none"
             d="M 0,0 -10.973,-15.852 -21.968,0.023 c -4.157,5.547 -3.563,14.657 1.277,19.497 2.598,2.593 6.046,4.023 9.718,4.023 3.668,0 7.118,-1.43 9.715,-4.023 C 3.582,14.68 4.18,5.57 0,0 m -0.125,20.652 c -2.898,2.895 -6.75,4.493 -10.848,4.493 -4.101,0 -7.952,-1.598 -10.851,-4.493 -5.36,-5.363 -6.028,-15.449 -1.442,-21.562 l 12.293,-17.75 12.27,17.725 c 4.605,6.138 3.937,16.224 -1.422,21.587" /></g></g></g></g></svg>